<svg width="230" height="230" viewBox="0 0 230 230" xmlns="http://www.w3.org/2000/svg"><title>arrow</title><g fill="none" fill-rule="evenodd"><g><g><path d="M.18 114.99C.18 51.55 51.614.12 115.07.12c63.417 0 114.87 51.432 114.87 114.87 0 63.457-51.453 114.867-114.87 114.867C51.614 229.857.18 178.447.18 114.99" fill="#802B3E"/><path d="M13.115 114.99C13.115 58.7 58.738 13.03 115.07 13.03c56.29 0 101.936 45.667 101.936 101.957 0 56.31-45.645 101.955-101.935 101.955-56.332 0-101.955-45.645-101.955-101.956" fill="#D04B69"/><path d="M170.52 142.82l3.627-39.858-16.67-28.998-32.603-10.148-26.06-4.06-31.87 31.892-31.806-4.664-31.05 31.07c5.054 58.774 50.893 108.37 110.983 108.37.973 0 1.945-.043 2.916-.086l79.178-79.177-12.135-4.34h-14.51" fill="#802B3E"/><path d="M199.474 138.308c-1.512-4.534-6.413-6.974-10.947-5.44l-12.135 4.058c4.016-8.097 6.003-16.885 6.003-25.608.02-16.863-7.32-33.618-21.376-45.105-10.776-8.81-23.86-13.106-36.75-13.106-7.666 0-15.31 1.533-22.434 4.49-4.427 1.836-6.5 6.91-4.686 11.315 1.857 4.426 6.91 6.5 11.357 4.664 4.988-2.095 10.365-3.153 15.762-3.153 9.09 0 18.18 3 25.78 9.198 9.932 8.098 15.05 19.8 15.05 31.698 0 6.52-1.598 13.063-4.75 19.044l-3.412-15.568c-1.015-4.685-5.636-7.622-10.3-6.607-4.685 1.015-7.62 5.657-6.585 10.32l7.903 36.103c.518 2.375 2.073 4.47 4.21 5.678 1.317.735 2.785 1.123 4.275 1.123.908 0 1.837-.15 2.722-.452l34.87-11.703c4.535-1.51 6.975-6.39 5.442-10.947zm-75.7 22.304c-4.924 2.03-10.236 3.045-15.547 3.045-9.112 0-18.18-3.002-25.78-9.177-9.912-8.097-15.05-19.843-15.072-31.718.022-6.543 1.598-13.063 4.772-19.044l3.41 15.568c.908 4.037 4.45 6.8 8.465 6.8.605 0 1.21-.064 1.857-.193 4.64-1.037 7.62-5.636 6.563-10.3l-7.88-36.123c-.54-2.375-2.074-4.47-4.21-5.678-2.096-1.188-4.687-1.447-6.997-.67L38.464 84.825C33.93 86.335 31.51 91.238 33 95.772c1.555 4.534 6.435 6.953 10.97 5.463l12.112-4.06c-3.994 8.076-6.002 16.864-6.002 25.587 0 16.84 7.34 33.618 21.42 45.105 10.773 8.81 23.836 13.106 36.727 13.106 7.557 0 15.07-1.468 22.088-4.34 4.427-1.813 6.586-6.844 4.75-11.292-1.813-4.425-6.844-6.54-11.292-4.728z" fill="#fff"/></g></g></g></svg>