<svg width="230" height="230" viewBox="0 0 230 230" xmlns="http://www.w3.org/2000/svg"><title>ecology-2</title><g fill="none" fill-rule="evenodd"><g><g><path d="M.336 114.725C.336 51.562 51.56.358 114.68.358c63.163 0 114.367 51.204 114.367 114.367 0 63.14-51.204 114.344-114.366 114.344C51.56 229.07.337 177.864.337 114.724" fill="#8E6C2E"/><path d="M13.196 114.725c0-56.078 45.43-101.507 101.485-101.507 56.057 0 101.507 45.43 101.507 101.507 0 56.056-45.45 101.506-101.506 101.506-56.055 0-101.484-45.45-101.484-101.505" fill="#F5BE5D"/><path d="M47.246 104.462L7.83 143.88l10.11 27.996 19.838 22.327 26.665 13.655 29.134 15.458 17.454 3.306 72.502-72.523-5.582-72.524-21.104-3.735-2.447-22.928-16.125-5.625-9.49-4.273-61.53 61.488-20.01-2.04" fill="#8E6C2E"/><path d="M56.263 114.274l8.352 48.692c14.32-2.555 103.374-18.227 109.73-18.55.364-.064 3.584-.794 3.584-6.032 0-5.432-5.304-6.312-5.52-6.355-.707-.11-1.244-.688-1.244-1.397-.02-.708.472-1.33 1.202-1.46.15-.064 5.325-1.202 5.325-6.226 0-5.002-5.13-6.183-5.303-6.226-.73-.15-1.224-.75-1.18-1.48.02-.71.536-1.288 1.266-1.374.17-.043 5.367-.923 5.367-6.14 0-5.26-5.217-6.205-5.41-6.248-.73-.13-1.202-.73-1.224-1.417-.022-.707.47-1.33 1.18-1.46.193-.042 5.303-1.18 5.303-6.31 0-5.432-3.264-6.012-4.66-6.012-.3 0-.557.02-.815.043l-25.892 4.144c-.064 0-.17.022-.257.022-.56 0-1.096-.344-1.31-.902-.26-.665-.022-1.374.536-1.76.064-.043 5.603-4.015 5.603-18.335 0-11.315-5.196-16.36-10.263-16.36-1.073 0-2.125.236-3.113.73-1.03.515-1.074 1.588-.902 4.787.3 6.656.838 17.798-15.672 34.265-14.385 14.406-54.532 19.902-64.687 21.362zm15.18-15.65c31.623-7.193 39.245-13.59 40.425-14.772 5.69-5.71 9.404-11.014 10.97-15.8 1.203-3.458 1.053-6.034.903-8.782-.085-2.126-.214-4.315.323-6.7.9-4.572 3.67-8.22 7.772-10.24 2.726-1.352 5.775-2.06 8.802-2.06 6.57 0 12.753 3.177 16.96 8.695 4.015 5.174 6.098 12.28 6.098 20.524 0 1.824-.065 3.563-.172 5.216l6.698-1.052c.925-.172 1.87-.236 2.814-.236 8.716 0 17.52 6.484 17.52 18.87 0 2.685-.495 5.24-1.504 7.6 1.073 2.427 1.632 5.068 1.632 7.838 0 2.748-.537 5.367-1.61 7.75.987 2.32 1.48 4.83 1.48 7.47 0 2.6-.493 5.09-1.48 7.387 1.137 2.533 1.695 5.195 1.695 8.05 0 6.184-2.275 11.465-6.44 15.008-2.705 2.276-6.226 3.736-9.382 3.887-6.42.58-64.622 10.562-109.493 18.613-.687.13-1.353.172-2.04.172-2.34 0-4.594-.708-6.526-2.06-2.47-1.72-4.208-4.424-4.702-7.408l-8.78-51.633c-.56-3.048.257-6.204 2.04-8.673 1.802-2.49 4.572-4.143 7.642-4.55l18.356-3.114z" fill="#fff"/></g></g></g></svg>