<svg width="231" height="231" viewBox="0 0 231 231" xmlns="http://www.w3.org/2000/svg"><title>ecology</title><g fill="none" fill-rule="evenodd"><g><g><path d="M.876 115.725C.876 52.265 52.288.84 115.733.84s114.835 51.426 114.835 114.885c0 63.394-51.39 114.8-114.835 114.8-63.445 0-114.857-51.406-114.857-114.8" fill="#6E7A36"/><path d="M13.714 115.725c0-56.32 45.63-101.948 101.91-101.948 56.277 0 101.907 45.627 101.907 101.948 0 56.278-45.63 101.904-101.907 101.904-56.278 0-101.91-45.627-101.91-101.905" fill="#B9CD4B"/><path d="M27.347 183.323L66.4 216.637l58.525 7.094 55.025-48.773-4.294-63.696V99.705l-21.49-56.925-49.7 49.96-12.09 12.117-2.768 2.006H54.184l-44.527 44.7 17.69 31.76" fill="#6E7A36"/><path d="M54.184 106.604L85.207 77.86l.13 28.744H54.183" fill="#fff"/><path d="M85.336 106.604l31.022-28.743.108 28.744h-31.13" fill="#fff"/><path d="M116.466 106.604l27.63-32.193 3.522 32.194h-31.152" fill="#fff"/><path d="M154.166 42.78h21.49v64.773h-21.49V42.78z" fill="#fff"/><path d="M58.778 124.652h51.118v15.61H58.778v-15.61zm116.878-13.39H51.37c-2.446 0-4.464 2.005-4.464 4.463v57.27c0 2.48 2.018 4.463 4.465 4.463h80.403v-31.61h26.107v31.61h17.776c2.448 0 4.466-1.983 4.466-4.463v-57.27c0-2.458-2.018-4.464-4.466-4.464z" fill="#fff"/></g></g></g></svg>