<svg width="231" height="231" viewBox="0 0 231 231" xmlns="http://www.w3.org/2000/svg"><title>education</title><g fill="none" fill-rule="evenodd"><g><g><path d="M.106 115.83C.106 52.306 51.586.87 115.044.87c63.502 0 114.98 51.436 114.98 114.96 0 63.458-51.478 114.96-114.98 114.96C51.586 230.79.106 179.287.106 115.83" fill="#496D95"/><path d="M13.025 115.83c0-56.332 45.687-102.04 102.02-102.04 56.374 0 102.04 45.708 102.04 102.04 0 56.354-45.666 102.018-102.04 102.018-56.333 0-102.02-45.664-102.02-102.018" fill="#90B8D8"/><path d="M128.618 73.335L112.814 89.14l-10.033-9.225-53.293-19.543L6.162 103.72l12.197 67.24 51.806 47.72 68.355-.46 40.77-40.746-15.15-12.94 5.968-5.947-14.865-17.62 8.46-8.458-7.716-24.484-12.81-12.46-3.41-.175 5.596-5.617-16.745-16.438" fill="#496D95"/><path d="M166.457 161.494c3.804-2.098 6.405-6.164 6.405-10.776 0-6.842-5.552-12.395-12.372-12.395-6.842 0-12.395 5.553-12.395 12.395 0 4.612 2.602 8.678 6.405 10.776-3.235 1.924-6.514 4.984-8.94 8.198-2.405-3.214-5.684-6.274-8.92-8.198 3.826-2.098 6.406-6.164 6.406-10.776 0-6.842-5.53-12.395-12.395-12.395-6.84 0-12.35 5.553-12.35 12.395 0 4.612 2.58 8.678 6.384 10.776-3.214 1.924-6.514 4.984-8.92 8.198-2.403-3.214-5.704-6.274-8.94-8.198 3.826-2.098 6.405-6.164 6.405-10.776 0-6.842-5.53-12.395-12.373-12.395-6.842 0-12.373 5.553-12.373 12.395 0 4.612 2.58 8.678 6.383 10.776-3.213 1.924-6.514 4.984-8.918 8.198-2.406-3.214-5.685-6.274-8.92-8.198 3.804-2.098 6.405-6.164 6.405-10.776 0-6.842-5.53-12.395-12.394-12.395-6.82 0-12.372 5.553-12.372 12.395 0 4.612 2.6 8.678 6.383 10.776-6.098 3.65-12.48 11.345-12.48 16.417h126.37c0-5.07-6.384-12.765-12.483-16.416zM136.29 92.746c7.062 0 12.79-5.75 12.79-12.744 0-7.082-5.728-12.766-12.79-12.766-7.06 0-12.765 5.684-12.765 12.766 0 6.995 5.706 12.744 12.766 12.744zm-27.476 41.315c2.732 1.29 5.16 3.28 6.95 5.728 1.18-1.64 2.668-3.06 4.307-4.197V113.69h3.936v19.804c2.077-.83 4.306-1.267 6.645-1.267 6.122 0 11.543 2.972 14.91 7.563.808-1.07 1.705-2.01 2.666-2.886v-23.214h3.935v20.526c2.493-1.268 5.335-1.99 8.33-1.99 1.114 0 2.23.132 3.28.328v-17.88c0-10.646-8.614-19.303-19.26-19.303h-4.765l.743.502c.59.372.875 1.246.59 1.902l-1.705 4.284 3.236 23.565-5.75 5.202-5.75-5.202 2.908-23.565-1.75-4.284c-.26-.656 0-1.53.613-1.902l.722-.503h-5.552c-10.645 0-19.236 8.656-19.236 19.3v19.39zM99.37 85.51l12.92 3.433-7.564-8.963c2.055-2.994 3.235-6.405 3.235-9.968 0-12.35-13.77-22.384-30.777-22.384S46.405 57.662 46.405 70.012s13.77 22.363 30.778 22.363c8.722 0 16.59-2.645 22.187-6.864z" fill="#fff"/></g></g></g></svg>