<svg width="639" height="556" viewBox="0 0 639 556" xmlns="http://www.w3.org/2000/svg"><title>intro</title><desc>Created with Sketch.</desc><g fill="none" fill-rule="evenodd"><g><path d="M638.115 337.498c0 6.68-5.418 12.1-12.1 12.1h-365.55c-6.682 0-12.1-5.42-12.1-12.1V69.762c0-6.683 5.418-12.103 12.1-12.103h365.55c6.682 0 12.1 5.42 12.1 12.102v267.736" fill="#636462"/><path d="M259.455 67.745H629.04V307.75H259.456V67.744z" fill="#F2F2F1"/><path d="M365.743 136.818h227.942v145.536H365.743V136.818z" fill="#34A5A9"/><path d="M373.715 159.837H585.71v115.116H373.714V159.837z" fill="#fff"/><path d="M473.075 171.72h105.252v16.026H473.075V171.72z" fill="#DB3733"/><path d="M473.075 195.614h105.252v5.747H473.075v-5.746z" fill="#00A0AB"/><path d="M473.075 206.71h105.252v5.75H473.075v-5.75z" fill="#00A0AB"/><path d="M473.075 219.507h105.252v5.748H473.075v-5.748z" fill="#00A0AB"/><path d="M585.71 154.122c0 1.062-.856 1.92-1.92 1.92h-10.928c-1.06 0-1.92-.858-1.92-1.92v-10.927c0-1.062.86-1.918 1.92-1.918h10.93c1.062 0 1.917.856 1.917 1.918v10.927" fill="#fff"/><path d="M582.082 150.343l-1.687-1.688 1.687-1.685c.488-.484.488-1.274 0-1.756-.484-.49-1.27-.49-1.76 0l-1.685 1.686-1.69-1.686c-.48-.49-1.27-.49-1.757 0-.484.482-.484 1.272 0 1.756l1.686 1.685-1.686 1.688c-.484.484-.484 1.274 0 1.76.486.487 1.276.487 1.757 0l1.69-1.686 1.684 1.687c.49.486 1.278.486 1.762 0 .488-.487.488-1.277 0-1.76" fill="#4D4D4C"/><path d="M393.574 349.598H498.45v26.97H393.575V349.6z" fill="#8A8B8A"/><path d="M510.548 383.125c0 2.786-1.626 5.042-3.635 5.042H385.106c-2.007 0-3.635-2.256-3.635-5.042 0-2.78 1.63-5.043 3.636-5.043h121.807c2.01 0 3.635 2.262 3.635 5.043" fill="#8A8B8A"/><path d="M278.477 87.48h227.946v145.54H278.477V87.48z" fill="#B4B5B4"/><path d="M286.45 110.5h212v115.118h-212V110.5z" fill="#fff"/><path d="M335.754 167.957c-3.11 0-7.777-3.314-11.01-6.597-1.553-1.57-5.144-5.58-5.098-8.928.017-1.2.003-2.433-.014-3.688-.06-5.6-.127-11.393 2.374-16.31 2.862-5.627 8.858-8.57 13.296-8.57 2.418 0 10.584.64 14.21 8.9 1.984 4.52 2.443 10.985 1.4 19.77-.713 6.053-9.92 15.423-15.158 15.423" fill="#fff"/><path d="M335.302 123.083c-4.676 0-10.984 3.09-13.99 8.996-2.59 5.087-2.52 11.244-2.46 16.673.017 1.248.03 2.477.01 3.668-.044 3.514 3.315 7.453 5.324 9.49 3.352 3.4 8.23 6.828 11.568 6.828 5.638 0 15.172-9.636 15.935-16.114 1.06-8.924.58-15.522-1.46-20.172-3.82-8.693-12.39-9.37-14.928-9.37zm0 1.56c4.6 0 10.667 1.986 13.495 8.435 2.423 5.52 2.053 13.374 1.343 19.365-.686 5.795-9.657 14.734-14.386 14.734-4.733 0-15.402-9.492-15.328-14.734.09-6.403-.7-13.808 2.28-19.655 2.768-5.44 8.484-8.146 12.596-8.146z" fill="#343433"/><path d="M365.743 206.623s-5.498 12.884-30.217 12.884c-24.717 0-33.455-12.884-33.455-12.884s2.5-24 2.75-29.5c.25-5.506 17.477-8.964 17.477-8.964s.157 12.956 13.23 12.956 12.734-12.957 12.734-12.957 15.48 2.47 15.734 8.962c.252 6.492 1.75 29.5 1.75 29.5" fill="#343433"/><path d="M344.69 194.598h12.317v2.832H344.69v-2.832z" fill="#fff"/><path d="M317.43 144.122s21.966-4.887 25.015-11.376c4.996 9.362 10.124 9.712 10.124 9.712s1.286-20.102-9.42-20.598c-6.995-3.623-15.982-3.247-21.72 4.993-4.86 6.968-4 17.27-4 17.27" fill="#343433"/><path d="M315.538 146.91c-.494 0-.917-.367-.988-.867-.08-.588-1.885-14.564 5.574-23.11 3.662-4.19 8.91-6.32 15.594-6.32 7.137 0 12.56 2.22 16.102 6.596 6.97 8.596 4.165 22.326 4.044 22.908-.114.537-.642.883-1.185.767-.543-.112-.886-.644-.776-1.18.03-.134 2.734-13.392-3.645-21.25-3.147-3.875-8.04-5.842-14.542-5.842-6.083 0-10.823 1.893-14.088 5.634-6.867 7.868-5.12 21.388-5.1 21.527.07.547-.306 1.05-.855 1.126l-.137.01" fill="#343433"/><path d="M353.856 141.41v12.665c3.417-.1 6.16-2.893 6.16-6.33 0-3.443-2.743-6.237-6.16-6.335" fill="#343433"/><path d="M354.244 153.89c0 .51-.418.924-.93.924-.51 0-.93-.414-.93-.925v-12.292c0-.515.42-.93.93-.93.512 0 .93.415.93.93v12.29" fill="#343433"/><path d="M317.1 154.99v-12.663c-3.42.097-6.162 2.888-6.162 6.328 0 3.447 2.743 6.238 6.163 6.335" fill="#343433"/><path d="M316.712 142.513c0-.513.415-.93.93-.93.513 0 .925.417.925.93v12.29c0 .516-.412.93-.925.93-.515 0-.93-.414-.93-.93v-12.29" fill="#343433"/><path d="M384.73 124.642h105.25v16.025H384.73v-16.025z" fill="#CF6153"/><path d="M384.73 152.236h105.25v8.01H384.73v-8.01z" fill="#34A5A9"/><path d="M388.842 174.638h31.242v28.988h-31.242v-28.988z" fill="#DB3733"/><path d="M430.388 174.638h31.245v28.988h-31.245v-28.988z" fill="#EB8B2D"/><path d="M543.58 235.484h31.245v28.992H543.58v-28.992z" fill="#EB8B2D"/><path d="M496.707 235.484h31.25v28.992h-31.25v-28.992z" fill="#EB8B2D"/><path d="M449.84 235.484h31.25v28.992h-31.25v-28.992z" fill="#EB8B2D"/><path d="M497.36 104.36c0 1.058-.856 1.916-1.92 1.916h-10.93c-1.06 0-1.915-.858-1.915-1.916V93.427c0-1.06.855-1.92 1.916-1.92h10.93c1.064 0 1.92.86 1.92 1.92v10.933" fill="#fff"/><path d="M493.73 100.577l-1.685-1.685 1.684-1.686c.488-.486.488-1.276 0-1.76-.483-.487-1.273-.487-1.757 0l-1.687 1.686-1.684-1.687c-.49-.486-1.276-.486-1.762 0-.483.485-.483 1.275 0 1.76l1.69 1.687-1.69 1.685c-.483.488-.483 1.276 0 1.758.486.49 1.272.49 1.762 0l1.684-1.684 1.687 1.685c.484.49 1.274.49 1.756 0 .488-.482.488-1.27 0-1.758" fill="#4D4D4C"/><path d="M601.777 453.777H298.09l37.622-55.482h240.3l25.765 55.482" fill="#636462"/><path d="M565.596 416.934h-224.75l8.025-12.61h213.987l2.74 12.61" fill="#F2F2F1"/><path d="M571.352 438.858H328.216l8.022-12.607h231.826l3.288 12.608" fill="#F2F2F1"/><path d="M589.378 460.88c-10.284-.006-268.49-.198-282.04-.002-11.51.17-9.25-7.1-9.25-7.1h303.69s-2.126 7.11-12.4 7.102" fill="#4D4D4C"/><path d="M385.342 107.207c7.33 2.6 15.077 3.916 23.047 3.916 33.942 0 61.55-24.23 61.55-54.013 0-29.782-27.608-54.01-61.55-54.01-33.936 0-61.547 24.228-61.547 54.01 0 15.08 7.2 29.467 19.806 39.682l-6.718 26.16 25.41-15.745" fill="#fff"/><path d="M408.39.946c-35.125 0-63.7 25.195-63.7 56.164 0 15.303 7.085 29.905 19.537 40.47l-7.712 30.023 29.09-18.028c7.27 2.457 14.924 3.703 22.784 3.703 35.13 0 63.703-25.197 63.703-56.168 0-30.97-28.574-56.164-63.704-56.164zm0 4.305c32.804 0 59.394 23.22 59.394 51.86 0 28.642-26.59 51.86-59.395 51.86-8.27 0-16.14-1.478-23.293-4.145L363.35 118.3l5.733-22.327c-12.314-9.503-20.087-23.385-20.087-38.863 0-28.64 26.592-51.86 59.393-51.86z" fill="#9E9F9E"/><path d="M428.062 55.382c.175 3.705 3.324 6.565 7.027 6.388 3.704-.178 6.56-3.32 6.387-7.03-.176-3.7-3.32-6.56-7.026-6.385-3.704.177-6.566 3.322-6.388 7.027" fill="#343433"/><path d="M398.992 55.382c.177 3.705 3.322 6.565 7.027 6.388 3.704-.178 6.562-3.32 6.388-7.03-.177-3.7-3.32-6.56-7.027-6.385-3.704.177-6.564 3.322-6.388 7.027" fill="#343433"/><path d="M369.92 55.382c.18 3.705 3.324 6.565 7.03 6.388 3.703-.178 6.563-3.32 6.386-7.03-.175-3.7-3.32-6.56-7.027-6.385-3.704.177-6.564 3.322-6.39 7.027" fill="#343433"/><path d="M272.66 455.28s-85.498 22.777-94.337 24.92v49.83l94.337-24.916s10.608-.165 10.608-24.915c0-24.754-10.608-24.92-10.608-24.92" fill="#5F1E1F"/><path d="M94.597 455.28L.26 480.2l179.866.474 92.534-25.393H94.597" fill="#BC2B2F"/><path d="M178.323 480.2H.26v4.738h10.154l1.287 40.358H.26v4.734h178.063s10.61-.165 10.61-24.916c0-24.747-10.61-24.915-10.61-24.915" fill="#A22A2C"/><path d="M173.855 525.296H3.472s6.7-5.7 6.7-20.182c0-14.48-6.7-20.176-6.7-20.176h170.383s9.858.135 9.858 20.176c0 20.045-9.858 20.182-9.858 20.182" fill="#fff"/><path d="M10.414 492.658l7.102-.185c4.518-.083 10.975-.205 18.722-.35 7.748-.077 16.786-.252 26.47-.288l30.344-.127c10.33.044 20.658.085 30.342.125 9.685.033 18.723.21 26.47.29l18.723.35c4.52.116 7.102.185 7.102.185l-7.103.184c-4.52.083-10.975.205-18.724.35-7.746.077-16.784.257-26.47.288l-30.34.125-30.345-.125c-9.684-.036-18.722-.21-26.47-.29l-18.722-.35-7.102-.182" fill="#CBCCCB"/><path d="M12.303 512.716l6.693-.182c4.26-.086 10.344-.205 17.644-.35 7.302-.08 15.818-.254 24.945-.29l28.595-.126 28.595.126c9.127.03 17.645.21 24.947.288 7.3.084 13.383.274 17.642.35l6.693.184s-2.433.068-6.693.184c-4.26.078-10.342.266-17.642.35-7.302.077-15.82.258-24.947.29-9.125.04-18.86.082-28.595.126l-28.595-.128c-9.127-.036-17.643-.21-24.945-.29l-17.644-.348-6.693-.184" fill="#CBCCCB"/><path d="M14.313 499.87l3.293-.184c2.096-.076 5.093-.262 8.686-.347 3.593-.085 7.786-.244 12.278-.303 4.493-.08 9.285-.095 14.076-.114 4.792.02 9.583.03 14.076.112 4.492.055 8.685.218 12.28.302 3.593.083 6.588.27 8.685.35l3.293.183-3.293.185c-2.097.077-5.092.265-8.685.35-3.595.083-7.788.246-12.28.3-4.493.083-9.284.094-14.076.115-4.79-.02-9.583-.034-14.076-.116-4.492-.06-8.685-.218-12.278-.302-3.593-.085-6.59-.27-8.686-.347l-3.293-.185" fill="#CBCCCB"/><path d="M45.623 505.114l3.295-.184c2.097-.076 5.092-.262 8.687-.348 3.593-.083 7.786-.243 12.28-.302 4.49-.082 9.282-.095 14.075-.116 4.792.02 9.585.033 14.077.112 4.493.057 8.686.22 12.28.304 3.592.084 6.587.272 8.684.35l3.296.184-3.295.184c-2.096.078-5.09.266-8.684.35-3.593.083-7.786.244-12.28.3-4.49.083-9.284.094-14.076.113-4.793-.018-9.584-.033-14.076-.112-4.493-.06-8.686-.22-12.28-.302-3.594-.086-6.59-.272-8.686-.35l-3.295-.182" fill="#CBCCCB"/><path d="M78.94 518.335l3.294-.184c2.097-.075 5.092-.26 8.687-.348 3.594-.082 7.787-.24 12.28-.3 4.492-.082 9.285-.097 14.077-.116 4.793.02 9.584.032 14.078.112 4.49.057 8.684.22 12.28.302 3.592.085 6.587.273 8.684.35 2.096.12 3.294.185 3.294.185l-3.295.185c-2.098.076-5.093.266-8.686.35-3.595.083-7.788.244-12.28.3-4.493.083-9.284.094-14.077.113-4.792-.02-9.585-.034-14.077-.114-4.493-.062-8.686-.22-12.28-.303-3.594-.085-6.59-.27-8.686-.35l-3.295-.182" fill="#CBCCCB"/><path d="M112.783 499.87s.74-.083 2.034-.184c1.295-.08 3.145-.25 5.365-.36 4.44-.24 10.362-.398 16.28-.403 5.92.004 11.842.16 16.284.402 2.218.107 4.07.28 5.363.36 1.295.102 2.035.185 2.035.185s-.74.084-2.036.185c-1.294.08-3.146.256-5.364.36-4.442.242-10.363.4-16.283.405-5.92-.008-11.84-.165-16.28-.406-2.22-.107-4.07-.278-5.366-.36-1.295-.1-2.034-.184-2.034-.184" fill="#CBCCCB"/><path d="M10.414 518.335s.74-.083 2.035-.184c1.295-.08 3.144-.25 5.364-.358 4.442-.24 10.362-.4 16.283-.406 5.92.006 11.84.163 16.282.404 2.22.105 4.068.28 5.364.36 1.295.1 2.035.185 2.035.185s-.74.084-2.036.185c-1.296.08-3.145.254-5.365.36-4.444.242-10.363.397-16.283.403-5.92-.006-11.84-.165-16.283-.406-2.22-.107-4.07-.278-5.365-.36-1.296-.098-2.036-.182-2.036-.182" fill="#CBCCCB"/><path d="M146.783 521.146l-13.55-8.43-13.548 8.43v-26.094c0-2.394 2.61-3.4 2.61-3.4h26.693s-2.205.992-2.205 3.2v26.294" fill="#00B3BF"/><path d="M194.984 419.48H13.946l93.26-8.076h181.04l-93.262 8.075" fill="#714626"/><path d="M194.984 474.075H13.946s-9.64-5.623-9.64-27.298c0-21.676 9.64-27.298 9.64-27.298h181.038s-9.63 7.628-9.63 27.297c0 19.67 9.63 27.298 9.63 27.298" fill="#50341C"/><path d="M279.795 462.405c-.578-3.058-.993-42.983-.416-46.042l8.87-.77v-4.19l-93.266 8.076s-9.63 7.628-9.63 27.297c0 19.67 9.63 27.298 9.63 27.298l93.266-8.08v-4.32l-8.455.73" fill="#33210F"/><path d="M202.19 469.13l86.056-7.456s-8.128-4.744-8.128-23.042c0-18.294 8.128-23.038 8.128-23.038l-86.055 7.452s-8.136 6.438-8.136 23.042c0 16.605 8.137 23.04 8.137 23.04" fill="#fff"/><path d="M205.824 427.482s1.136-.15 3.126-.416c1.993-.224 4.832-.62 8.25-.96 3.42-.34 7.403-.793 11.68-1.17 4.276-.398 8.842-.75 13.405-1.11 4.57-.32 9.137-.645 13.423-.883 4.287-.26 8.296-.397 11.725-.568 3.432-.17 6.3-.193 8.303-.266l3.153-.048-3.127.418c-1.99.224-4.83.623-8.25.96-3.42.34-7.402.796-11.68 1.17-4.274.4-8.842.75-13.405 1.11-4.57.317-9.137.642-13.423.88-4.286.257-8.293.396-11.725.567-3.432.17-6.3.193-8.303.266l-3.153.05" fill="#B4B5B4"/><path d="M204.622 462.143s1.138-.15 3.126-.416c1.992-.224 4.832-.62 8.25-.96 3.418-.34 7.403-.793 11.68-1.17 4.274-.398 8.84-.75 13.405-1.11 4.568-.32 9.135-.648 13.423-.883 4.285-.262 8.292-.397 11.722-.568 3.43-.17 6.3-.194 8.302-.266 2.008-.03 3.155-.05 3.155-.05l-3.126.42c-1.993.223-4.834.623-8.253.96-3.418.34-7.402.797-11.68 1.17-4.272.4-8.838.75-13.403 1.108-4.568.32-9.137.644-13.423.882-4.283.258-8.292.396-11.722.567-3.432.168-6.3.194-8.303.266-2.008.033-3.153.05-3.153.05" fill="#B4B5B4"/><path d="M197.402 440.41l3.456-.415c2.2-.224 5.34-.62 9.116-.963 3.777-.336 8.178-.79 12.903-1.168 4.723-.396 9.765-.75 14.805-1.11 5.044-.318 10.09-.644 14.823-.88 4.73-.262 9.155-.397 12.942-.568 3.787-.17 6.953-.193 9.163-.264 2.215-.03 3.48-.05 3.48-.05s-1.256.155-3.455.42c-2.2.223-5.34.624-9.116.962-3.778.336-8.18.793-12.903 1.168-4.723.398-9.766.75-14.806 1.107-5.045.318-10.09.643-14.82.88-4.734.256-9.157.395-12.946.566-3.787.167-6.95.194-9.163.266l-3.478.05" fill="#B4B5B4"/><path d="M200.273 434.102s.5-.125 1.38-.3c.878-.155 2.134-.43 3.643-.664 3.024-.494 7.067-.992 11.122-1.337 4.056-.332 8.124-.516 11.187-.53 1.53-.02 2.81.044 3.706.052.895.027 1.41.068 1.41.068s-.5.126-1.38.3c-.88.156-2.134.435-3.645.667-3.022.496-7.063.99-11.12 1.335-4.056.332-8.124.513-11.187.526-1.53.02-2.81-.044-3.706-.05-.896-.026-1.41-.066-1.41-.066" fill="#B4B5B4"/><path d="M240.236 431.39s.6-.125 1.65-.3c1.05-.154 2.547-.43 4.352-.664 3.606-.494 8.428-.99 13.257-1.335 4.833-.332 9.676-.514 13.317-.527 1.82-.02 3.34.045 4.404.053 1.063.026 1.673.068 1.673.068s-.6.125-1.648.3c-1.052.156-2.55.433-4.354.667-3.607.495-8.427.988-13.258 1.334-4.833.33-9.676.51-13.317.524-1.82.02-3.34-.044-4.404-.05-1.064-.028-1.674-.068-1.674-.068" fill="#B4B5B4"/><path d="M238.586 448.13s.598-.124 1.648-.3c1.053-.155 2.55-.43 4.355-.664 3.605-.493 8.427-.99 13.26-1.337 4.832-.333 9.677-.515 13.317-.53 1.82-.02 3.343.047 4.404.055 1.067.026 1.676.068 1.676.068s-.598.125-1.648.3c-1.052.156-2.55.433-4.353.667-3.608.495-8.43.99-13.26 1.333-4.835.332-9.68.512-13.322.526-1.82.02-3.34-.045-4.404-.052-1.064-.027-1.674-.067-1.674-.067" fill="#B4B5B4"/><path d="M201.578 455.302l2.404-.42c1.533-.226 3.715-.624 6.347-.968 2.633-.34 5.698-.798 8.993-1.178 3.293-.402 6.812-.76 10.33-1.122 3.524-.325 7.047-.653 10.355-.894 3.307-.266 6.402-.405 9.052-.58 2.65-.173 4.867-.2 6.415-.273 1.553-.034 2.438-.05 2.438-.05s-.87.15-2.402.418c-1.532.226-3.714.627-6.346.97-2.634.34-5.697.8-8.994 1.178-3.293.403-6.812.758-10.33 1.12-3.524.322-7.047.652-10.355.893-3.307.262-6.402.405-9.05.578-2.65.172-4.87.2-6.417.275l-2.44.052" fill="#B4B5B4"/><path d="M215.318 444.092s.598-.126 1.647-.3c1.052-.156 2.55-.432 4.354-.665 3.606-.496 8.426-.99 13.257-1.337 4.83-.334 9.674-.517 13.315-.53 1.82-.02 3.34.046 4.404.053 1.063.025 1.673.067 1.673.067s-.6.127-1.648.3c-1.052.155-2.55.435-4.354.668-3.607.494-8.427.99-13.258 1.335-4.83.33-9.674.513-13.315.526-1.82.02-3.34-.044-4.404-.052-1.062-.026-1.672-.066-1.672-.066" fill="#B4B5B4"/><path d="M213.653 364.908H32.61l93.26-8.08h181.04l-93.257 8.08" fill="#00B3BF"/><path d="M213.653 419.504H32.61s-9.634-5.62-9.634-27.302c0-21.674 9.633-27.294 9.633-27.294h181.043s-9.638 7.625-9.638 27.294c0 19.675 9.638 27.302 9.638 27.302" fill="#00A3B2"/><path d="M298.455 407.834c-.57-3.06-.985-42.987-.412-46.044l8.875-.765v-4.196l-93.265 8.078s-9.638 7.625-9.638 27.294c0 19.675 9.638 27.302 9.638 27.302l93.265-8.08v-4.32l-8.463.73" fill="#138D97"/><path d="M220.846 414.56l86.064-7.455s-8.132-4.746-8.132-23.044c0-18.295 8.132-23.035 8.132-23.035l-86.064 7.452s-8.122 6.436-8.122 23.043c0 16.6 8.122 23.04 8.122 23.04" fill="#fff"/><path d="M224.49 372.913l3.125-.418c1.992-.224 4.83-.62 8.25-.96 3.42-.34 7.404-.793 11.68-1.17 4.276-.398 8.84-.75 13.407-1.11 4.567-.32 9.135-.645 13.42-.883 4.287-.262 8.296-.397 11.726-.568 3.432-.17 6.3-.193 8.303-.265l3.155-.05s-1.137.153-3.126.417c-1.993.224-4.834.625-8.252.963-3.42.338-7.403.796-11.68 1.17-4.275.398-8.84.75-13.406 1.107-4.57.32-9.136.644-13.423.88-4.287.26-8.294.398-11.726.57-3.43.166-6.3.194-8.303.265l-3.15.05" fill="#B4B5B4"/><path d="M223.287 407.57l3.126-.416c1.992-.224 4.833-.62 8.25-.96 3.418-.34 7.402-.793 11.68-1.17 4.274-.398 8.84-.75 13.403-1.11 4.567-.32 9.135-.646 13.42-.88 4.287-.263 8.292-.398 11.724-.57 3.432-.168 6.3-.193 8.303-.265l3.153-.048-3.126.417c-1.993.224-4.832.622-8.25.962-3.42.336-7.403.794-11.68 1.168-4.275.397-8.84.75-13.404 1.107-4.567.32-9.134.642-13.42.88-4.287.258-8.294.397-11.724.568-3.43.167-6.3.193-8.303.265-2.006.033-3.153.05-3.153.05" fill="#B4B5B4"/><path d="M216.066 385.842s1.258-.15 3.457-.416c2.2-.224 5.34-.62 9.115-.96 3.778-.34 8.18-.793 12.903-1.17 4.724-.4 9.766-.753 14.806-1.112 5.046-.32 10.09-.645 14.823-.88 4.73-.263 9.155-.398 12.94-.57 3.79-.168 6.954-.19 9.167-.264l3.48-.048-3.458.418c-2.2.224-5.34.623-9.116.963-3.778.336-8.18.795-12.903 1.168-4.722.4-9.764.75-14.804 1.11-5.046.317-10.09.642-14.823.88-4.733.257-9.156.396-12.942.567-3.788.167-6.952.194-9.164.266l-3.48.05" fill="#B4B5B4"/><path d="M218.938 379.53s.5-.124 1.38-.297c.88-.155 2.133-.43 3.645-.664 3.02-.495 7.065-.993 11.12-1.338 4.058-.333 8.127-.517 11.19-.53 1.53-.02 2.81.045 3.706.05.893.028 1.408.07 1.408.07s-.5.127-1.38.3c-.88.155-2.133.434-3.645.666-3.022.496-7.065.99-11.12 1.335-4.058.33-8.128.513-11.19.526-1.53.02-2.812-.045-3.706-.052-.895-.025-1.41-.067-1.41-.067" fill="#B4B5B4"/><path d="M258.895 376.82s.598-.124 1.65-.3c1.05-.154 2.55-.43 4.353-.663 3.608-.494 8.428-.992 13.262-1.337 4.83-.335 9.674-.517 13.316-.53 1.82-.02 3.34.045 4.404.053 1.064.025 1.675.066 1.675.066s-.598.127-1.65.3c-1.05.157-2.55.434-4.353.668-3.608.494-8.428.99-13.26 1.335-4.833.332-9.677.513-13.318.526-1.82.02-3.342-.045-4.406-.052-1.063-.025-1.673-.067-1.673-.067" fill="#B4B5B4"/><path d="M257.252 393.56s.6-.125 1.65-.3c1.05-.156 2.547-.43 4.352-.665 3.606-.493 8.426-.99 13.257-1.337 4.834-.332 9.677-.514 13.318-.528 1.82-.02 3.34.046 4.404.054 1.063.024 1.673.066 1.673.066s-.598.127-1.647.302c-1.052.156-2.55.433-4.354.667-3.607.492-8.427.988-13.258 1.332-4.833.332-9.676.51-13.317.526-1.82.02-3.34-.044-4.405-.05-1.063-.028-1.673-.068-1.673-.068" fill="#B4B5B4"/><path d="M220.244 400.727l2.403-.417c1.532-.226 3.714-.625 6.347-.97 2.634-.34 5.697-.797 8.992-1.176 3.295-.403 6.814-.76 10.333-1.123 3.522-.322 7.043-.652 10.35-.893 3.307-.264 6.405-.405 9.054-.578 2.647-.173 4.867-.2 6.413-.274l2.44-.05s-.873.15-2.404.418c-1.532.226-3.714.63-6.346.97-2.633.34-5.698.8-8.993 1.178-3.295.4-6.814.756-10.333 1.12-3.522.322-7.043.65-10.35.89-3.307.263-6.405.406-9.052.58-2.65.17-4.867.2-6.415.274l-2.44.05" fill="#B4B5B4"/><path d="M233.983 389.52s.598-.125 1.648-.3c1.05-.155 2.55-.43 4.354-.664 3.606-.494 8.428-.99 13.26-1.337 4.83-.335 9.673-.518 13.314-.53 1.82-.022 3.342.045 4.404.052 1.064.027 1.673.07 1.673.07s-.598.124-1.646.3c-1.054.154-2.552.434-4.356.665-3.606.496-8.426.99-13.258 1.335-4.833.333-9.676.51-13.316.526-1.82.02-3.34-.043-4.404-.05-1.064-.027-1.673-.067-1.673-.067" fill="#B4B5B4"/><path d="M402.578 501.11c-1.582.952-3.164 1.974-4.73 3.104-14.763 10.633-22.623 24.962-17.552 32.003 5.072 7.04 21.156 4.127 35.918-6.508 1.566-1.13 3.48-2.86 4.44-3.505-16.614-5.26-18.076-25.094-18.076-25.094" fill="#A4A691"/><path d="M405.905 502.753c11.452-8.248 23.923-10.51 27.856-5.048 3.936 5.462-2.16 16.576-13.61 24.826-11.455 8.25-23.926 10.51-27.86 5.046-3.935-5.46 2.162-16.575 13.615-24.823" fill="#B5B79D"/><path d="M416.715 520.242c9.174-6.916 13.672-16.372 10.048-21.4-3.627-5.034-29.153-.428-23.484 2.75 13.315 3.898 13.435 18.65 13.435 18.65" fill="#A6A88E"/><path d="M340.048 375.017l12.665 17.588s-6.723 11.433-19.912 20.934c-13.188 9.498-25.11 11.494-25.11 11.494l-12.666-17.586s11.567-1.74 26.164-12.258c14.598-10.514 18.86-20.173 18.86-20.173" fill="#481011"/><path d="M275.155 277.51s36.74 64.36 72.72 114.31c35.978 49.943 85.886 105.885 85.886 105.885s-15.617.566-31.795 12.22c-16.18 11.656-21.67 26.292-21.67 26.292s-39.132-70.645-77.644-124.114c-38.51-53.464-80.96-96.082-80.96-96.082s-3.495-16.715 17.612-31.913c21.105-15.206 35.853-6.596 35.853-6.596" fill="#DFDFC8"/><path d="M340.048 375.017l12.665 17.588s-12.89 2.873-26.077 12.373c-13.193 9.503-18.945 20.056-18.945 20.056l-12.666-17.586s5.4-10.304 20-20.816c14.596-10.517 25.024-11.615 25.024-11.615" fill="#D9222A"/><path d="M330.117 355.764l.644 9.298 13.28-2.564s-7.11 6.18-12.162 16.623c-5.05 10.442-5.076 19.02-5.076 19.02l-13.92-6.733s-.11-8.298 5.478-19.858c5.587-11.553 11.757-15.786 11.757-15.786" fill="#6C1416"/><path d="M359.82 384.235l-7.168 5.958 9.84 9.28s-9.17-2.164-20.596-.16c-11.425 2.007-18.4 6.998-18.4 6.998l-2.673-15.236s6.672-4.938 19.314-7.152c12.648-2.222 19.684.313 19.684.313" fill="#6C1416"/><path d="M306.523 390.84c6.72-4.84 16.087-3.317 20.928 3.402 4.84 6.72 3.315 16.087-3.4 20.926-6.72 4.84-16.09 3.314-20.928-3.4-4.84-6.722-3.318-16.09 3.4-20.93" fill="#EB8B2D"/><path d="M309.248 394.624c4.628-3.333 11.085-2.285 14.42 2.345 3.33 4.627 2.283 11.082-2.345 14.413-4.627 3.337-11.085 2.285-14.42-2.34-3.333-4.63-2.28-11.086 2.345-14.42" fill="#F1AA48"/><path d="M604.845 507.735c-.03 21.422-17.964 56.44-39.717 45.206-20.916 9.457-41.776-23.886-41.748-45.31.027-21.426 18.92-30.58 41.416-30.55 22.497.028 40.077 9.23 40.05 30.655" fill="#DE4244"/><path d="M538.23 454.052c-.413 6.087 2.99 11.03 8.498 13.528 5.25 2.385 9.606-.21 13.305-2.898.832-.602 3.166.946 4.74-1.867.147-.268-3.94 1.006-4.138.412-1.45-4.32-3.576-10.584-9.245-10.523-7.883.084-6.52 5.147-13.16 1.348" fill="#4A7228"/><path d="M560.34 464.085s-.263-.313-.797-.774c-.524-.467-1.325-1.084-2.385-1.614-.528-.262-1.123-.507-1.766-.687-.316-.102-.674-.163-.99-.225l-.55-.078c-.187-.025-.356-.027-.536-.042-.72-.044-1.48 0-2.262.065-.792.08-1.6.16-2.406.245-.82.06-1.667.085-2.507-.025-.833-.1-1.662-.363-2.363-.782l-.154-.086-.116-.082-.23-.16-.45-.32c-.302-.196-.58-.458-.853-.7-.564-.462-.997-.97-1.414-1.42-.4-.472-.758-.907-1.045-1.315-.292-.403-.535-.76-.723-1.068-.198-.298-.327-.545-.424-.71l-.14-.255s.25.32.72.855c.22.272.516.583.846.948.33.36.735.742 1.16 1.164.445.398.92.85 1.455 1.24.265.206.522.424.846.607l.47.294.24.153.116.078.1.046c.616.342 1.33.513 2.073.604.745.086 1.527.055 2.32-.013.806-.07 1.613-.142 2.407-.21.813-.063 1.616-.06 2.412.016.2.023.408.04.592.073.185.036.365.074.543.108.21.043.372.102.556.152.18.047.353.106.52.17.686.236 1.29.557 1.818.888 1.06.658 1.796 1.407 2.258 1.95.46.553.657.91.657.91" fill="#32501E"/><path d="M562.008 483.287s-2.828-9.414-.507-17.226c3.036-10.224 7.772-13.796 12.33-16.615 2.967-1.832 3.306 8.468 3.306 8.468s-9.75 2.43-12.087 10.816c-1.786 6.39.513 13.733.513 13.733" fill="#3E2C21"/><path d="M556.522 480.904s3.578 1.434 6.62 1.26c3.044-.174 6.985-2.14 6.985-2.14s-1.618 4.834-7.167 4.648c-5.548-.188-6.438-3.768-6.438-3.768" fill="#A93336"/><path d="M540.442 455.642c1.158 1.03 4.11-.243 5.365-.754 2.007-.817 3.762-1.498 6.094-1.16 4.766.687 5.478 4.204 7.347 7.594-2.372-3.11-4.58-8.618-11.412-5.838-5.545 2.26-7.393.158-7.393.158" fill="#73A438"/><path d="M563.322 480.555c.785-.715-.57-4.368-.704-5.552-.226-2.04-.285-4.217.006-6.265.615-4.37 2.062-6.945 5.894-9.283-1.794 3.254-3.346 6.057-3.89 9.684-.263 1.792-.398 3.53-.582 5.33-.165 1.618.186 3.868-.365 5.37" fill="#281B13"/><path d="M550.342 551.96c2.404 1.368 5.6 1.575 8.41 1.623 2.817.047 5.35-1.806 7.92-1.286 5.42 1.102 11.317 2.653 16.388-.7 9.84-6.5 15.05-19.322 17.612-30.18.18-.76.367-1.583.57-2.263-.896 2.47-2.987 5.097-4.638 7.084-2.292 2.76-3.83 5.974-6.107 8.77-3.65 4.484-8.607 10.327-14.375 12.108-2.212.688-4.987 1.225-7.336 1.11-2.467-.12-4.755-.62-7.16.13-3.53 1.104-9.482 3.763-12.864.758.2.96 1.094 2.2 1.758 2.847" fill="#A93336"/><path d="M523.726 508.426c-1.392-5.635 2.368-13.237 5.925-17.53 1.97-2.377 4.023-4.635 6.498-6.568 2.513-1.958 5.665-2.638 8.726-3.44 3.25-.85 6.72-1.746 10.187-1.572-.15 1.7-5.45 4.002-6.96 4.663-3.303 1.45-6.688 2.325-9.67 4.462-2.787 2-5.098 4.523-7.884 6.527-2.604 1.868-4.1 4.154-5.335 7.056-.64 1.504-2.398 4.205-1.663 5.686" fill="#E25F52"/><path d="M63.96 287.073c0-1.177-.41-2.18-1.235-3.004-.825-.825-1.827-1.237-3.005-1.237-1.177 0-2.186.412-3.023 1.236-.838.823-1.257 1.826-1.257 3.003v26.94c0 1.177.42 2.177 1.257 3.003.837.825 1.846 1.237 3.023 1.237 1.178 0 2.18-.412 3.005-1.237.824-.826 1.236-1.826 1.236-3.004v-26.94zM59.92 275.45c3.27 0 6.052 1.152 8.344 3.455 2.29 2.304 3.436 5.08 3.436 8.326v26.86c0 3.274-1.153 6.054-3.456 8.345-2.304 2.292-5.08 3.435-8.324 3.435-3.274 0-6.05-1.15-8.326-3.454-2.277-2.304-3.416-5.08-3.416-8.326v-26.86c0-3.27 1.152-6.054 3.454-8.344 2.304-2.29 5.067-3.435 8.288-3.435z" fill="#343433"/><path d="M86.547 276.04l9.85 33.093V276.04h7.42v49.24h-7.97l-10.21-31.53v31.53h-7.42v-49.24h8.33" fill="#343433"/><path d="M130.68 325.28h-20.225v-49.203h7.422V317.9h12.802v7.38" fill="#343433"/><path d="M135.783 276.077h7.422v49.204h-7.422v-49.203z" fill="#343433"/><path d="M158.174 276.04l9.85 33.093V276.04h7.42v49.24h-7.97l-10.212-31.53v31.53h-7.42v-49.24h8.332" fill="#343433"/><path d="M182.082 325.28v-49.24h21.125v7.46h-13.703v13.43h10.012v7.46h-10.012v13.432h13.703v7.46h-21.125" fill="#343433"/><path d="M66.675 206.612l-9.496 44.58c-.248 1.074-.33 1.9-.33 2.643 0 2.31 1.074 3.054 3.385 3.054 3.22 0 6.19-3.14 7.43-7.265h3.467c-4.706 13.455-12.878 15.272-17.337 15.272-4.953 0-8.833-2.972-8.833-9.907 0-1.567.247-3.385.66-5.365l8.834-41.363 12.22-1.65" fill="#343433"/><path d="M89.538 226.756c-4.208 0-8.255 8.832-9.906 17.006 6.357-.412 11.97-6.768 11.97-13.622 0-2.065-.493-3.384-2.064-3.384zm-4.787 31.208c6.522 0 10.485-3.633 14.614-8.34h2.807c-4.705 7.595-11.722 15.273-22.703 15.273-7.76 0-12.88-3.796-12.88-13.126 0-9.493 5.367-29.39 22.292-29.39 7.347 0 9.08 3.798 9.08 7.925 0 9.496-9.08 16.84-18.988 17.42-.084 1.155-.166 2.312-.166 3.303 0 5.614 1.98 6.936 5.945 6.936z" fill="#343433"/><path d="M110.502 250.45c0 6.357 2.642 6.44 4.13 6.44 2.392 0 5.86-2.478 6.85-7.265l3.965-18.66c0-.99-.745-3.136-3.387-3.136-7.017 0-11.558 14.86-11.558 22.62zm28.483-27.327l-5.944 28.07c-.246 1.073-.33 1.9-.33 2.642 0 2.31 1.074 3.55 3.385 3.55 3.22 0 5.45-3.634 6.687-7.76h3.47c-4.707 13.455-12.138 15.272-16.597 15.272-4.622 0-7.595-2.64-8.09-7.594-2.56 3.798-6.44 7.594-12.3 7.594-5.615 0-10.98-3.467-10.98-13.292 0-11.145 6.85-28.894 21.217-28.894 4.704 0 6.687 1.816 6.687 4.21v.578l.907-4.375h11.888z" fill="#343433"/><path d="M160.278 223.123l-1.075 5.118c2.89-2.476 6.028-5.117 9.99-5.117 3.716 0 5.697 3.055 5.697 6.193 0 2.888-1.9 6.025-5.944 6.025-4.623 0-2.312-5.447-4.788-5.447-2.476 0-3.963 1.238-6.028 3.137l-6.605 31.372H139.64l8.75-41.28h11.888" fill="#343433"/><path d="M194.616 230.305c-2.972 0-5.2 3.468-6.44 7.596l-5.614 26.502h-11.888l8.75-41.28h11.89l-.908 4.294c3.467-3.963 7.1-4.624 9.66-4.624 5.284 0 9.164 2.725 9.164 9.33 0 6.687-3.964 16.677-3.964 21.3 0 2.063.826 3.467 3.303 3.467 1.402 0 2.228-.166 2.724-.497-.743 5.944-4.706 8.504-9.082 8.504-6.358 0-8.34-4.624-8.34-9.328 0-5.615 3.716-15.77 3.716-21.055 0-2.723-.99-4.21-2.972-4.21" fill="#343433"/></g></g></svg>