<svg width="161" height="51" viewBox="0 0 161 51" xmlns="http://www.w3.org/2000/svg"><title>logo</title><g fill="none" fill-rule="evenodd"><path d="M40.082 29.962v6.257H27.12v7.906h14.463v6.307h-22.22V16.7h21.52v6.306H27.118v6.956H40.08M60.4 14.797h7.76v28.33c0 2.668.065 5.104.2 7.306H61.45l-.3-3.704h-.1c-1.7 2.835-4.37 4.253-8.008 4.253-3.02 0-5.568-1.17-7.645-3.516-2.078-2.343-3.116-5.36-3.116-9.046 0-3.92 1.097-7.07 3.29-9.446 2.194-2.377 4.868-3.566 8.02-3.566 3.137 0 5.372.935 6.707 2.803h.1V14.798zm0 24.525V36.47c0-1.503-.44-2.737-1.325-3.705-.884-.967-2.027-1.45-3.428-1.45-1.702 0-3.045.63-4.03 1.89-.983 1.258-1.475 2.914-1.475 4.966 0 2.036.492 3.655 1.476 4.855.984 1.202 2.31 1.802 3.98 1.802 1.2 0 2.3-.438 3.302-1.313 1-.877 1.5-2.273 1.5-4.192z" fill="#3880A8"/><path d="M76.684 50.333V17.15c2.318-.5 5.105-.75 8.358-.75 4.304 0 7.458.78 9.46 2.34 2.002 1.56 3.002 3.6 3.002 6.118 0 1.618-.505 3.095-1.514 4.43-1.01 1.334-2.423 2.36-4.24 3.077 2.134.534 3.844 1.547 5.128 3.04 1.285 1.493 1.927 3.3 1.927 5.418 0 2.853-1.155 5.218-3.465 7.094-2.31 1.878-6.178 2.816-11.6 2.816-1.984 0-4.337-.134-7.056-.4zm4.655-30.08v10.66h4.103c2.268 0 4.062-.512 5.38-1.54 1.317-1.025 1.976-2.363 1.976-4.015 0-3.603-2.47-5.405-7.408-5.405-1.768 0-3.12.1-4.053.3zm0 14.114V46.93c.783.133 2.05.2 3.802.2 2.753 0 4.9-.547 6.444-1.64 1.542-1.093 2.315-2.68 2.315-4.767 0-2.035-.788-3.603-2.364-4.705-1.577-1.1-3.725-1.65-6.444-1.65H81.34zM102.158 50.433V33.916c0-3.136-.067-5.705-.2-7.707h4.104l.3 4.853c.617-1.7 1.56-3.027 2.828-3.98 1.268-.95 2.644-1.424 4.13-1.424.315 0 .733.032 1.25.1v4.403c-.45-.1-.984-.15-1.6-.15-1.687 0-3.133.66-4.343 1.976-1.21 1.317-1.814 3.194-1.814 5.63v12.813h-4.655M121.977 18.852c0 .834-.275 1.535-.826 2.102-.55.567-1.275.85-2.175.85-.868 0-1.577-.283-2.128-.85-.55-.567-.826-1.268-.826-2.102 0-.818.28-1.505.84-2.065.558-.558 1.28-.838 2.164-.838.85 0 1.556.28 2.115.837.557.56.837 1.247.837 2.065zm-5.305 7.357h4.655v24.223h-4.655V26.21zM127.232 21.705l4.554-1.352v5.856h6.457v3.552h-6.457v12.613c0 1.685.27 2.9.814 3.64.542.743 1.405 1.115 2.59 1.115 1.084 0 1.968-.1 2.652-.3l.2 3.503c-1.15.433-2.536.65-4.153.65-4.44 0-6.658-2.77-6.658-8.308V29.762h-3.804V26.21h3.804v-4.505M160.815 39.272h-17.568c.067 2.62.876 4.625 2.428 6.018 1.552 1.394 3.562 2.09 6.03 2.09 2.686 0 5.04-.417 7.057-1.25l.8 3.252c-2.385 1.067-5.204 1.6-8.457 1.6-3.77 0-6.773-1.116-9.01-3.352-2.234-2.236-3.352-5.205-3.352-8.91 0-3.702 1.072-6.805 3.216-9.308 2.142-2.502 5.024-3.753 8.645-3.753 3.336 0 5.897 1.112 7.682 3.34 1.785 2.226 2.678 4.95 2.678 8.17 0 .917-.05 1.618-.15 2.102zm-17.517-3.354h13.162c0-2.085-.538-3.766-1.614-5.042-1.076-1.276-2.606-1.914-4.592-1.914-1.885 0-3.445.638-4.68 1.914-1.234 1.276-1.993 2.957-2.276 5.042z" fill="#404040"/><g><path d="M24.888 1.453L2.59 17.24l4.34.197v2.368l-.986 5.03-.79 1.877s3.11 2.513 6.858-.247l-.592-2.22-1.134-6.413 7.302.79 1.38 3.945s7.696-.196 22.298-5.722l-.394-3.947 10.46-7.696-26.444-3.75" fill="#3880A8"/><path d="M8.376 28.352c-2.11 0-3.534-1.13-3.594-1.18l-.345-.28.938-2.23.974-4.97L6.34 18l-5.5-.248L24.737.834l28.11 3.985-11.354 8.355.406 4.063-.425.16c-14.528 5.498-22.173 5.753-22.49 5.76l-.433.012-1.4-4-6.146-.665.996 5.637.686 2.56-.325.24c-1.27.935-2.612 1.41-3.987 1.41zM5.89 26.49c.47.27 1.363.677 2.486.677 1.003 0 1.996-.32 2.957-.95l-.485-1.82-1.283-7.24 8.458.915 1.356 3.878c1.78-.135 9.083-.94 21.252-5.5l-.383-3.828 9.562-7.037-24.774-3.513-20.7 14.654 3.185.145v2.935l-1.034 5.26-.6 1.424z" fill="#48484A"/><path d="M41.39 12.084s-7.104-7.03-23.606 2.738c0 0 14.996-6.858 22.866-1.553l.74-1.186" fill="#48484A"/></g></g></svg>