<svg width="259" height="337" viewBox="0 0 259 337" xmlns="http://www.w3.org/2000/svg"><title>man</title><g fill="none" fill-rule="evenodd"><g><g><path d="M154.168 180.774h-50.35s7.69 43.79-28.936 79.992l51.693 62.515h4.84l51.69-62.514c-36.623-36.203-28.937-79.992-28.937-79.992" fill="#F4BC7F"/><path d="M101.105 216.182c-3.725 13.8-11.29 29.82-26.223 44.584l51.693 62.515h4.84l51.69-62.514C168.17 246 160.606 229.982 156.88 216.182l-27.636 15.28-28.14-15.28" fill="#fff"/><path d="M101.105 216.182c-3.725 13.8 24.345 35.45 24.345 35.45l-14.026 71.65 17.567 10.557 17.53-10.56-13.2-71.255s27.287-22.043 23.562-35.843l-27.636 15.28-28.14-15.28" fill="#C1242A"/><path d="M154.168 180.774h-50.35s.993 5.703.553 14.67c8.628 4.335 17.346 6.99 24.337 6.99 7.176 0 16.1-2.82 24.89-7.377-.393-8.74.57-14.283.57-14.283" fill="#DFA461"/><path d="M195.314 98.02c-1.942-5.018-5.337-2.424-7.98.88.757-38.934-19.778-58.706-19.778-58.706H90.43S69.763 59.918 70.415 98.61c-2.605-3.156-5.857-5.46-7.743-.59-3.503 9.052 4.732 21.45 3.158 34.02-1.07 8.5 5.63 7.648 9.87 5.272 1.598 6.426 3.966 14.013 7.78 22.89 8.06 18.77 31.2 35.867 45.397 35.867 14.2 0 37-17.23 45.4-35.868 3.863-8.565 6.274-15.678 7.806-22.994 4.226 2.456 11.156 3.47 10.074-5.168-1.575-12.57 6.66-24.968 3.157-34.02" fill="#F4BC7F"/><path d="M175.427 36.17S104.773 99.53 59.037 19.244c0 0 12.71-.5 51.352-14.414 35.383-12.736 59.345 5.867 65.037 31.34" fill="#91402D"/><path d="M171.078 35.75l-16.41 4.27c2.157 4.016 13.115 17.39 19.166 33.698 5.668 15.28 6.538 33.13 5.947 48.266l2.993-5.097c4.283-7.302 6.864-15.442 7.64-23.87 2.103-22.92 3.242-66.027-19.335-57.267" fill="#91402D"/><path d="M73.497 116.887l2.988 5.097c-.586-15.135.28-32.985 5.947-48.266 6.05-16.308 17.013-29.682 19.164-33.7L85.193 35.75c-22.578-8.76-21.44 34.348-19.335 57.262.77 8.433 3.356 16.573 7.64 23.875" fill="#91402D"/><path d="M163.273 233.285c-2.747-5.65-4.75-11.183-6.197-16.407l12.574 7.35-6.377 9.057" fill="#CECDC8"/><path d="M144.373 260.118l-7.502-11.16c7.11-6.402 22.238-21.47 20.168-32.1l.038.02c1.446 5.224 3.45 10.756 6.197 16.407l-18.9 26.833" fill="#CECDC8"/><path d="M94.92 232.86l-6.078-8.633 11.974-6.994c-1.408 4.988-3.318 10.25-5.895 15.626" fill="#CECDC8"/><path d="M114.124 260.118l-19.203-27.26c2.578-5.375 4.488-10.637 5.896-15.625l.076-.048c-1.674 10.615 13.714 25.248 20.937 31.466l-7.706 11.468" fill="#CECDC8"/><path d="M129.246 231.463l25.73-15.81 1.39.813-27.12 14.997" fill="#C49868"/><path d="M129.246 231.463l-27.36-14.86 1.634-.95 25.726 15.81" fill="#C49868"/><path d="M136.87 248.96l-7.624-11.345-7.417 11.036c-7.224-6.217-22.612-20.85-20.938-31.465l.993-.582 27.36 14.86 27.12-14.997.673.393c2.07 10.628-13.057 25.696-20.167 32.1" fill="#9A2428"/><path d="M72.996 99.528c-.42-15.777 1.215-35.232 9.294-50.57 9.133-17.325 24.88-26.208 46.7-26.208 21.822 0 37.568 8.883 46.702 26.208 8.083 15.338 9.714 34.793 9.298 50.57h7.308c.51-17.443-1.333-39.236-10.603-56.96-10.556-20.173-28.33-30.532-52.704-30.532-24.373 0-42.148 10.36-52.704 30.533-9.27 17.722-11.113 39.515-10.603 56.958h7.313" fill="#494947"/><path d="M69.087 94.39c-1.546-.734-3.2-1.156-4.926-1.156-8.376 0-15.17 9.413-15.17 21.026 0 11.614 6.794 21.022 15.17 21.022 1.726 0 3.38-.417 4.927-1.155V94.39" fill="#494947"/><path d="M74.604 89.008c-1.267-.69-2.7-1.117-4.246-1.117h-.18c-4.953 0-8.972 4.024-8.972 8.984v36.477c0 4.965 4.02 8.988 8.973 8.988h.178c1.546 0 2.98-.43 4.246-1.117V89.01" fill="#57BBBB"/><path d="M190.91 134.132l-4.02-.005c-.004 1.5-.6 35.043-41.883 38.503-.78-1.174-2.052-1.997-3.565-1.997h-15.74c-2.403 0-4.35 1.95-4.35 4.358v.086c0 2.404 1.947 4.36 4.35 4.36h15.74c1.858 0 3.418-1.18 4.042-2.822 44.772-3.885 45.425-42.075 45.425-42.482" fill="#494947"/><path d="M188.9 94.39c1.545-.734 3.195-1.156 4.925-1.156 8.382 0 15.175 9.413 15.175 21.026 0 11.614-6.793 21.022-15.175 21.022-1.73 0-3.38-.417-4.925-1.155V94.39" fill="#494947"/><path d="M183.383 89.008c1.267-.69 2.7-1.117 4.245-1.117h.18c4.954 0 8.972 4.024 8.972 8.984v36.477c0 4.965-4.018 8.988-8.972 8.988h-.18c-1.546 0-2.978-.43-4.245-1.117V89.01" fill="#57BBBB"/><path d="M129.246 231.463l15.127 20.61 25.277-35.89-14.673-8.576-25.73 23.856" fill="#fff"/><path d="M129.246 231.463l-15.122 20.61-25.282-35.89 14.678-8.576 25.726 23.856" fill="#fff"/><path d="M247.343 251.12c-6.098-12.17-18.98-21.408-34.873-25.014l-52.927-15.47s2.49 24.75-9.057 60.153c-9.28 28.455-21.368 57.947-21.368 57.947s-12.754-29.27-21.39-57.962c-10.656-35.39-9.2-60.14-9.2-60.14l-52.5 15.47c-15.894 3.607-28.78 12.845-34.874 25.016 0 0-18.294 59.847-7.18 64.868C24.645 325.32 47 330.943 69.82 333.285c39.5 4.046 79.352 4.046 118.853 0 22.818-2.342 45.178-7.965 65.846-17.297 11.117-5.02-7.177-64.867-7.177-64.867" fill="#494947"/></g></g></g></svg>