<svg width="263" height="391" viewBox="0 0 263 391" xmlns="http://www.w3.org/2000/svg"><title>woman</title><g fill="none" fill-rule="evenodd"><g><g><path d="M233.364 288.05s-.265-107.57-.265-139.11C233.1 67.096 187.437.75 131.122.75 74.803.75 29.148 67.097 29.148 148.94v139.11h204.216" fill="#91402D"/><path d="M154.84 207.436h-47.172s7.202 51.46-27.112 94.01l48.432 78.2h4.53l48.432-78.2c-34.314-42.55-27.11-94.01-27.11-94.01" fill="#F4BC7F"/><path d="M81.043 302.232l47.945 77.415h4.53l47.946-77.415H81.044" fill="#fff"/><path d="M154.84 207.436h-47.172s.924 6.703.52 17.248c8.082 5.092 16.247 8.214 22.797 8.214 6.727 0 15.08-3.32 23.322-8.674-.37-10.273.532-16.788.532-16.788" fill="#DFA461"/><path d="M209.1 110.177c-2.284-5.895-6.272-2.846-9.38 1.035.89-45.754-23.257-68.99-23.257-68.99l-45.34-14.974L85.778 42.22S61.47 65.403 62.245 110.88c-3.064-3.715-6.887-6.427-9.105-.703-4.12 10.638 5.565 25.212 3.712 39.986-1.256 9.99 6.62 8.984 11.606 6.194 1.875 7.555 4.663 16.473 9.15 26.9 9.48 22.064 36.687 42.157 53.377 42.157 16.695 0 43.503-20.253 53.383-42.156 4.542-10.07 7.38-18.427 9.177-27.023 4.968 2.884 13.117 4.074 11.844-6.072-1.854-14.774 7.832-29.348 3.71-39.986" fill="#F4BC7F"/><path d="M181.613 36.996l-19.29 5.02c2.528 4.716 15.423 20.436 22.532 39.6 6.67 17.96 7.684 38.945 6.998 56.73l3.512-5.995c5.034-8.58 8.07-18.144 8.984-28.052 2.472-26.934 3.81-77.598-22.737-67.302" fill="#91402D"/><path d="M66.876 132.35l3.518 5.995c-.692-17.784.326-38.768 6.992-56.73 7.11-19.163 20.004-34.883 22.532-39.6l-19.29-5.02C54.08 26.7 55.418 77.366 57.892 104.3c.912 9.908 3.95 19.473 8.984 28.053" fill="#91402D"/><path d="M131.123 27.36C63.84 12.14 57.427 83.69 57.427 83.69c56.348 13.645 70.46-16.81 73.696-38 3.236 21.19 17.343 51.645 73.69 38 0 0-6.405-71.548-73.69-56.33" fill="#91402D"/><path d="M65.277 111.948c-.493-18.538 1.427-41.404 10.93-59.432 10.738-20.358 29.254-30.798 54.91-30.798 25.658 0 44.173 10.44 54.91 30.798 9.504 18.028 11.424 40.894 10.937 59.432h8.59c.604-20.497-1.564-46.108-12.468-66.932-12.408-23.713-33.307-35.89-61.968-35.89-28.66 0-49.56 12.177-61.97 35.89C58.247 65.84 56.084 91.45 56.68 111.948h8.597" fill="#494947"/><path d="M60.68 105.914c-1.815-.87-3.756-1.356-5.792-1.356-9.852 0-17.84 11.06-17.84 24.71 0 13.644 7.988 24.71 17.84 24.71 2.036 0 3.977-.494 5.792-1.357v-46.706" fill="#494947"/><path d="M67.17 99.588c-1.49-.808-3.177-1.312-4.99-1.312h-.21c-5.832 0-10.556 4.727-10.556 10.556v42.875c0 5.83 4.724 10.556 10.555 10.556h.21c1.813 0 3.5-.504 4.99-1.312V99.59" fill="#57BBBB"/><path d="M203.923 152.62l-4.724-.005c-.007 1.766-.704 41.182-49.252 45.25-.918-1.383-2.412-2.347-4.187-2.347h-18.51c-2.826 0-5.116 2.292-5.116 5.12v.106c0 2.828 2.29 5.12 5.117 5.12h18.51c2.186 0 4.017-1.384 4.753-3.31 52.647-4.572 53.41-49.452 53.41-49.933" fill="#494947"/><path d="M201.56 105.914c1.82-.87 3.763-1.356 5.793-1.356 9.852 0 17.84 11.06 17.84 24.71 0 13.644-7.988 24.71-17.84 24.71-2.03 0-3.972-.494-5.792-1.357v-46.706" fill="#494947"/><path d="M195.072 99.588c1.494-.808 3.175-1.312 4.995-1.312h.21c5.826 0 10.55 4.727 10.55 10.556v42.875c0 5.83-4.724 10.556-10.55 10.556h-.21c-1.82 0-3.5-.504-4.995-1.312V99.59" fill="#57BBBB"/><path d="M251.53 297.29c-6.21-13.28-19.333-23.36-35.52-27.29l-56.574-12.67-28.313 105.573-28.345-105.573L46.496 270c-16.186 3.93-29.308 14.01-35.52 27.29 0 0-18.632 65.287-7.308 70.767 21.05 10.18 43.818 16.317 67.063 18.87 40.23 4.416 80.817 4.416 121.045 0 23.245-2.553 46.015-8.69 67.07-18.87 11.317-5.48-7.314-70.768-7.314-70.768" fill="#494947"/><path d="M162.323 326.138h47.807v10.445h-47.807v-10.445z" fill="#fff"/></g></g></g></svg>